<?xml version="1.0" standalone="no"?><!-- Generator: Gravit.io --><svg xmlns="http://www.w3.org/2000/svg" xmlns:xlink="http://www.w3.org/1999/xlink" style="isolation:isolate" viewBox="94 1378.949 61.568 85" width="61.568" height="85"><g><g><g><path d=" M 124.784 1378.949 C 107.81 1378.949 94 1392.758 94 1409.732 C 94 1430.798 121.549 1461.723 122.721 1463.029 C 123.823 1464.256 125.747 1464.254 126.846 1463.029 C 128.019 1461.723 155.568 1430.798 155.568 1409.732 C 155.567 1392.758 141.758 1378.949 124.784 1378.949 Z  M 124.784 1456.931 C 115.512 1445.918 99.544 1424.19 99.544 1409.733 C 99.544 1395.815 110.866 1384.492 124.784 1384.492 C 138.701 1384.492 150.024 1395.815 150.024 1409.733 C 150.024 1424.191 134.058 1445.915 124.784 1456.931 Z " fill="rgb(58,58,58)"/></g></g><g><g><path d=" M 124.784 1394.244 C 116.244 1394.244 109.296 1401.192 109.296 1409.733 C 109.296 1418.273 116.244 1425.221 124.784 1425.221 C 133.324 1425.221 140.272 1418.273 140.272 1409.733 C 140.272 1401.192 133.324 1394.244 124.784 1394.244 Z  M 124.784 1419.677 C 119.3 1419.677 114.839 1415.216 114.839 1409.733 C 114.839 1404.249 119.3 1399.788 124.784 1399.788 C 130.267 1399.788 134.728 1404.249 134.728 1409.733 C 134.728 1415.216 130.267 1419.677 124.784 1419.677 Z " fill="rgb(103,58,183)"/></g></g></g></svg>