<?xml version="1.0" standalone="no"?><!-- Generator: Gravit.io --><svg xmlns="http://www.w3.org/2000/svg" xmlns:xlink="http://www.w3.org/1999/xlink" style="isolation:isolate" viewBox="1492 1378.949 61.055 85" width="61.055" height="85"><g><g><path d=" M 1547.38 1378.949 L 1544.536 1378.949 L 1534.597 1378.949 L 1492 1378.949 L 1492 1403.097 L 1492 1431.494 L 1492 1455.617 L 1497.68 1455.617 L 1497.68 1463.949 L 1503.359 1460.163 L 1509.039 1463.949 L 1509.039 1455.617 L 1534.597 1455.617 L 1544.536 1455.617 L 1547.38 1455.617 C 1550.509 1455.617 1553.055 1453.071 1553.055 1449.943 L 1553.055 1431.494 L 1553.055 1403.097 L 1553.055 1384.623 C 1553.054 1381.495 1550.508 1378.949 1547.38 1378.949 Z  M 1494.838 1381.789 L 1534.595 1381.789 L 1534.595 1403.097 L 1494.838 1403.097 L 1494.838 1381.789 Z  M 1526.076 1427.221 C 1525.292 1427.221 1524.656 1427.857 1524.656 1428.64 C 1524.656 1428.64 1524.659 1428.65 1524.659 1428.655 L 1518.974 1428.655 C 1518.974 1428.65 1518.976 1428.645 1518.976 1428.645 C 1518.976 1427.855 1518.34 1427.221 1517.557 1427.221 C 1516.773 1427.221 1516.137 1427.857 1516.137 1428.64 C 1516.137 1428.64 1516.139 1428.65 1516.139 1428.655 L 1510.454 1428.655 C 1510.454 1428.65 1510.457 1428.645 1510.457 1428.645 C 1510.457 1427.855 1509.821 1427.221 1509.037 1427.221 C 1508.253 1427.221 1507.617 1427.857 1507.617 1428.64 C 1507.617 1428.64 1507.62 1428.65 1507.62 1428.655 L 1501.935 1428.655 C 1501.935 1428.65 1501.938 1428.645 1501.938 1428.645 C 1501.938 1427.855 1501.302 1427.221 1500.518 1427.221 C 1499.734 1427.221 1499.098 1427.857 1499.098 1428.64 C 1499.098 1428.64 1499.101 1428.65 1499.101 1428.655 L 1494.838 1428.655 L 1494.838 1424.381 L 1494.838 1415.861 L 1494.838 1407.342 L 1494.838 1405.937 L 1496.186 1405.937 C 1495.438 1405.976 1494.838 1406.584 1494.838 1407.342 C 1494.838 1408.126 1495.474 1408.762 1496.258 1408.762 C 1497.042 1408.762 1497.678 1408.126 1497.678 1407.342 C 1497.678 1406.584 1497.079 1405.976 1496.331 1405.937 L 1504.705 1405.937 C 1503.957 1405.976 1503.358 1406.584 1503.358 1407.342 C 1503.358 1408.126 1503.994 1408.762 1504.778 1408.762 C 1505.561 1408.762 1506.197 1408.126 1506.197 1407.342 C 1506.197 1406.584 1505.598 1405.976 1504.85 1405.937 L 1513.224 1405.937 C 1512.476 1405.976 1511.877 1406.584 1511.877 1407.342 C 1511.877 1408.126 1512.513 1408.762 1513.297 1408.762 C 1514.081 1408.762 1514.717 1408.126 1514.717 1407.342 C 1514.717 1406.584 1514.118 1405.976 1513.369 1405.937 L 1521.744 1405.937 C 1520.995 1405.976 1520.396 1406.584 1520.396 1407.342 C 1520.396 1408.126 1521.032 1408.762 1521.816 1408.762 C 1522.6 1408.762 1523.236 1408.126 1523.236 1407.342 C 1523.236 1406.584 1522.637 1405.976 1521.889 1405.937 L 1530.263 1405.937 C 1529.515 1405.976 1528.916 1406.584 1528.916 1407.342 C 1528.916 1408.126 1529.552 1408.762 1530.335 1408.762 C 1531.119 1408.762 1531.755 1408.126 1531.755 1407.342 C 1531.755 1406.584 1531.156 1405.976 1530.408 1405.937 L 1534.595 1405.937 L 1534.595 1410.182 C 1533.811 1410.182 1533.175 1410.818 1533.175 1411.602 C 1533.175 1412.386 1533.811 1413.022 1534.595 1413.022 L 1534.595 1418.701 C 1533.811 1418.701 1533.175 1419.337 1533.175 1420.121 C 1533.175 1420.905 1533.811 1421.541 1534.595 1421.541 L 1534.595 1427.221 C 1533.811 1427.221 1533.175 1427.857 1533.175 1428.64 C 1533.175 1428.64 1533.178 1428.65 1533.178 1428.655 L 1527.493 1428.655 C 1527.493 1428.65 1527.496 1428.645 1527.496 1428.645 C 1527.496 1427.855 1526.86 1427.221 1526.076 1427.221 Z  M 1506.197 1458.644 L 1503.358 1456.75 L 1500.518 1458.644 L 1500.518 1455.617 L 1506.197 1455.617 L 1506.197 1458.644 Z  M 1509.037 1452.777 L 1497.678 1452.777 L 1494.838 1452.777 L 1494.838 1431.494 L 1534.595 1431.494 L 1534.595 1452.777 L 1509.037 1452.777 Z  M 1537.435 1452.777 L 1537.435 1431.494 L 1537.435 1403.097 L 1537.435 1381.789 L 1541.695 1381.789 L 1541.695 1403.097 L 1541.695 1431.494 L 1541.695 1452.777 L 1537.435 1452.777 Z  M 1547.374 1408.762 C 1548.158 1408.762 1548.794 1408.126 1548.794 1407.342 C 1548.794 1406.584 1548.195 1405.976 1547.447 1405.937 L 1550.214 1405.937 L 1550.214 1428.655 L 1544.534 1428.655 L 1544.534 1405.937 L 1547.302 1405.937 C 1546.553 1405.976 1545.954 1406.584 1545.954 1407.342 C 1545.954 1408.126 1546.59 1408.762 1547.374 1408.762 Z  M 1550.214 1449.943 C 1550.214 1451.506 1548.942 1452.777 1547.378 1452.777 L 1544.534 1452.777 L 1544.534 1431.494 L 1550.214 1431.494 L 1550.214 1449.943 Z  M 1544.534 1403.097 L 1544.534 1381.789 L 1547.378 1381.789 C 1548.942 1381.789 1550.214 1383.061 1550.214 1384.623 L 1550.214 1403.097 L 1544.534 1403.097 Z " fill="rgb(0,0,0)"/><circle vector-effect="non-scaling-stroke" cx="1500.5178905519167" cy="1411.601844704223" r="1.4198850728316756" fill="rgb(103,58,183)"/><circle vector-effect="non-scaling-stroke" cx="1509.0372009889072" cy="1411.601844704223" r="1.4198850728316756" fill="rgb(103,58,183)"/><circle vector-effect="non-scaling-stroke" cx="1517.5565114258977" cy="1411.601844704223" r="1.4198850728316756" fill="rgb(103,58,183)"/><circle vector-effect="non-scaling-stroke" cx="1526.075821862889" cy="1411.601844704223" r="1.4198850728316756" fill="rgb(103,58,183)"/><circle vector-effect="non-scaling-stroke" cx="1496.2582353334224" cy="1415.861499922718" r="1.4198850728316756" fill="rgb(103,58,183)"/><circle vector-effect="non-scaling-stroke" cx="1504.7775457704129" cy="1415.861499922718" r="1.4198850728316756" fill="rgb(103,58,183)"/><circle vector-effect="non-scaling-stroke" cx="1496.2582353334224" cy="1424.380810359708" r="1.4198850728316756" fill="rgb(103,58,183)"/><circle vector-effect="non-scaling-stroke" cx="1504.7775457704129" cy="1424.380810359708" r="1.4198850728316756" fill="rgb(103,58,183)"/><circle vector-effect="non-scaling-stroke" cx="1500.5178905519167" cy="1420.1211551412134" r="1.4198850728316756" fill="rgb(103,58,183)"/><circle vector-effect="non-scaling-stroke" cx="1509.0372009889072" cy="1420.1211551412134" r="1.4198850728316756" fill="rgb(103,58,183)"/><circle vector-effect="non-scaling-stroke" cx="1513.2968562074034" cy="1415.861499922718" r="1.4198850728316756" fill="rgb(103,58,183)"/><circle vector-effect="non-scaling-stroke" cx="1521.8161666443937" cy="1415.861499922718" r="1.4198850728316756" fill="rgb(103,58,183)"/><circle vector-effect="non-scaling-stroke" cx="1513.2968562074034" cy="1424.380810359708" r="1.4198850728316756" fill="rgb(103,58,183)"/><circle vector-effect="non-scaling-stroke" cx="1521.8161666443937" cy="1424.380810359708" r="1.4198850728316756" fill="rgb(103,58,183)"/><circle vector-effect="non-scaling-stroke" cx="1517.5565114258977" cy="1420.1211551412134" r="1.4198850728316756" fill="rgb(103,58,183)"/><circle vector-effect="non-scaling-stroke" cx="1526.075821862889" cy="1420.1211551412134" r="1.4198850728316756" fill="rgb(103,58,183)"/><circle vector-effect="non-scaling-stroke" cx="1530.3354770813835" cy="1415.861499922718" r="1.4198850728316756" fill="rgb(103,58,183)"/><circle vector-effect="non-scaling-stroke" cx="1530.3354770813835" cy="1424.380810359708" r="1.4198850728316756" fill="rgb(103,58,183)"/><circle vector-effect="non-scaling-stroke" cx="1547.374097955365" cy="1415.861499922718" r="1.4198850728316756" fill="rgb(103,58,183)"/><circle vector-effect="non-scaling-stroke" cx="1547.374097955365" cy="1424.380810359708" r="1.4198850728316756" fill="rgb(103,58,183)"/></g></g></svg>