<?xml version="1.0" standalone="no"?><!-- Generator: Gravit.io --><svg xmlns="http://www.w3.org/2000/svg" xmlns:xlink="http://www.w3.org/1999/xlink" style="isolation:isolate" viewBox="553 1378.949 103.619 85" width="103.619" height="85"><g><g><g><path d=" M 634.357 1427.52 C 633.24 1427.52 632.333 1428.427 632.333 1429.544 C 632.333 1430.661 633.24 1431.568 634.357 1431.568 C 635.474 1431.568 636.381 1430.661 636.381 1429.544 C 636.381 1428.427 635.474 1427.52 634.357 1427.52 Z " fill="rgb(0,0,0)"/></g></g><g><g><path d=" M 575.262 1427.52 C 574.145 1427.52 573.238 1428.427 573.238 1429.544 C 573.238 1430.661 574.145 1431.568 575.262 1431.568 C 576.379 1431.568 577.286 1430.661 577.286 1429.544 C 577.286 1428.427 576.379 1427.52 575.262 1427.52 Z " fill="rgb(0,0,0)"/></g></g><g><g><path d=" M 654.645 1432.511 L 635.317 1386.116 C 635.308 1386.095 635.299 1386.074 635.289 1386.054 C 633.319 1381.738 628.981 1378.949 624.238 1378.949 C 618.247 1378.949 613.258 1383.312 612.274 1389.027 C 610.144 1387.855 607.556 1387.201 604.81 1387.201 C 602.063 1387.201 599.475 1387.855 597.345 1389.027 C 596.361 1383.312 591.372 1378.949 585.381 1378.949 C 580.638 1378.949 576.3 1381.738 574.33 1386.054 C 574.32 1386.074 574.311 1386.095 574.302 1386.116 L 554.974 1432.511 C 553.665 1435.401 553 1438.488 553 1441.687 C 553 1453.962 562.987 1463.949 575.262 1463.949 C 587.537 1463.949 597.524 1453.962 597.524 1441.687 L 597.524 1430.316 C 599.16 1428.655 601.824 1427.677 604.81 1427.677 C 607.795 1427.677 610.459 1428.655 612.095 1430.316 L 612.095 1441.687 C 612.095 1453.962 622.082 1463.949 634.357 1463.949 C 646.632 1463.949 656.619 1453.962 656.619 1441.687 C 656.619 1438.488 655.954 1435.401 654.645 1432.511 Z  M 575.262 1459.901 C 565.219 1459.901 557.048 1451.73 557.048 1441.687 C 557.048 1431.48 565.372 1423.473 575.262 1423.473 C 585.305 1423.473 593.476 1431.643 593.476 1441.687 C 593.476 1451.73 585.305 1459.901 575.262 1459.901 Z  M 593.476 1428.902 C 589.444 1423.175 582.783 1419.425 575.262 1419.425 C 570.973 1419.425 566.867 1420.671 563.371 1422.88 L 578.025 1387.706 C 579.345 1384.844 582.229 1382.996 585.381 1382.996 C 589.845 1382.996 593.476 1386.628 593.476 1391.092 L 593.476 1428.902 Z  M 612.095 1425.361 C 609.999 1424.249 607.48 1423.63 604.81 1423.63 C 602.139 1423.63 599.62 1424.249 597.524 1425.361 L 597.524 1422.221 C 599.16 1420.56 601.824 1419.582 604.81 1419.582 C 607.795 1419.582 610.459 1420.559 612.095 1422.221 L 612.095 1425.361 Z  M 612.095 1417.265 C 609.999 1416.154 607.48 1415.535 604.81 1415.535 C 602.139 1415.535 599.62 1416.154 597.524 1417.265 L 597.524 1393.887 C 599.16 1392.226 601.824 1391.249 604.81 1391.249 C 607.795 1391.249 610.459 1392.226 612.095 1393.887 L 612.095 1417.265 Z  M 616.143 1391.092 C 616.143 1386.628 619.774 1382.996 624.238 1382.996 C 627.39 1382.996 630.274 1384.844 631.594 1387.706 L 646.248 1422.88 C 642.752 1420.671 638.646 1419.425 634.357 1419.425 C 626.836 1419.425 620.175 1423.175 616.143 1428.902 L 616.143 1391.092 Z  M 634.357 1459.901 C 624.314 1459.901 616.143 1451.73 616.143 1441.687 C 616.143 1431.643 624.314 1423.473 634.357 1423.473 C 644.245 1423.473 652.571 1431.477 652.571 1441.687 C 652.571 1451.73 644.4 1459.901 634.357 1459.901 Z " fill="rgb(0,0,0)"/></g></g><g><g><path d=" M 584.168 1430.675 C 583.3 1429.972 582.025 1430.105 581.321 1430.974 C 580.618 1431.842 580.751 1433.117 581.62 1433.82 C 584.01 1435.757 585.381 1438.624 585.381 1441.687 C 585.381 1447.266 580.842 1451.806 575.262 1451.806 C 574.144 1451.806 573.238 1452.712 573.238 1453.83 C 573.238 1454.947 574.144 1455.854 575.262 1455.854 C 583.073 1455.854 589.429 1449.499 589.429 1441.687 C 589.429 1437.398 587.511 1433.384 584.168 1430.675 Z " fill="rgb(103,58,183)"/></g></g><g><g><path d=" M 643.263 1430.675 C 642.395 1429.972 641.12 1430.105 640.416 1430.974 C 639.713 1431.842 639.847 1433.117 640.715 1433.82 C 643.105 1435.757 644.476 1438.624 644.476 1441.687 C 644.476 1447.266 639.937 1451.806 634.357 1451.806 C 633.24 1451.806 632.333 1452.712 632.333 1453.83 C 632.333 1454.947 633.24 1455.854 634.357 1455.854 C 642.169 1455.854 648.524 1449.499 648.524 1441.687 C 648.524 1437.398 646.606 1433.384 643.263 1430.675 Z " fill="rgb(103,58,183)"/></g></g></g></svg>